{"title":"Instant Mom S03E19 HDTV EN-SUB x264-W4F","uid":12834527,"size":196191274,"categoryP":"video","categoryS":"tv_shows","magnet":"?xt=urn:btih:d1846c77d19e2ee3246aafcf052da11c3a5316ce&amp;dn=Instant+Mom+S03E19+HDTV+EN-SUB+x264-W4F&amp;tr=udp%3A%2F%2Ftracker.leechers-paradise.org%3A6969&amp;tr=udp%3A%2F%2Fzer0day.ch%3A1337&amp;tr=udp%3A%2F%2Fopen.demonii.com%3A1337&amp;tr=udp%3A%2F%2Ftracker.coppersurfer.tk%3A6969&amp;tr=udp%3A%2F%2Fexodus.desync.com%3A6969","seeders":0,"leechers":0,"uploader":"Mulva1989","files":2,"time":1448430193,"description":"Instant Mom S03E19 HDTV EN-SUB x264-W4F\r\n\r\nJames and Gabby try to make a business out of selling Grandma Maggie's fruit snacks, but when she finds out, she wants a piece of the action.\r\n\r\nScreens @ \nhttp://extraimago.com/images/2015/11/25/instant.mom.s03e19.hdtv.x264-w4f.mp4_snapshot_14.33_2015.11.25_05.37.01.jpg \nhttp://extraimago.com/images/2015/11/25/instant.mom.s03e19.hdtv.x264-w4f.mp4.jpg\r\n\r\nFormat                      : MPEG-4\r\nFormat profile              : Base Media\r\nCodec ID                    : isom\r\nFile size                   : 187 MiB\r\nDuration                    : 20mn 30s\r\nOverall bit rate mode       : Variable\r\nOverall bit rate            : 1 276 Kbps\r\nEncoded date                : UTC 2015-11-22 23:23:39\r\nTagged date                 : UTC 2015-11-22 23:23:39\r\n\r\nVideo\r\nID                          : 1\r\nFormat                      : AVC\r\nFormat/Info                 : Advanced Video Codec\r\nFormat profile              :   \r\nFormat settings, CABAC      : Yes\r\nFormat settings, ReFrames   : 5 frames\r\nCodec ID                    : avc1\r\nCodec ID/Info               : Advanced Video Coding\r\nDuration                    : 20mn 30s\r\nBit rate                    : 1 163 Kbps\r\nMaximum bit rate            : 2 951 Kbps\r\nWidth                       : 720 pixels\r\nHeight                      : 404 pixels\r\nDisplay aspect ratio        : 16:9\r\nFrame rate mode             : Constant\r\nFrame rate                  : 23.976 fps\r\nColor space                 : YUV\r\nChroma subsampling          : 4:2:0\r\nBit depth                   : 8 bits\r\nScan type                   : Progressive\r\nBits/(Pixel*Frame)          : 0.167\r\nStream size                 : 171 MiB (91%)\r\nWriting library             : x264 core 148 r2638 7599210\r\nEncoding settings           : cabac=1 / ref=5 / deblock=1:0:0 / analyse=0x3:0x113 / me=umh / subme=8 / psy=1 / psy_rd=1.00:0.00 / mixed_ref=1 / me_range=16 / chroma_me=1 / trellis=1 / 8x8dct=1 / cqm=0 / deadzone=21,11 / fast_pskip=1 / chroma_qp_offset=-2 / threads=12 / lookahead_threads=2 / sliced_threads=0 / nr=0 / decimate=1 / interlaced=0 / bluray_compat=0 / constrained_intra=0 / bframes=3 / b_pyramid=2 / b_adapt=2 / b_bias=0 / direct=3 / weightb=1 / open_gop=0 / weightp=2 / keyint=250 / keyint_min=25 / scenecut=40 / intra_refresh=0 / rc_lookahead=50 / rc=crf / mbtree=1 / crf=20.0 / qcomp=0.60 / qpmin=0 / qpmax=69 / qpstep=4 / ip_ratio=1.40 / aq=1:1.00\r\nEncoded date                : UTC 2015-11-22 23:23:39\r\nTagged date                 : UTC 2015-11-22 23:23:49\r\nMatrix coefficients         : BT.709\r\nColor range                 : Limited\r\n\r\nAudio\r\nID                          : 2\r\nFormat                      : AAC\r\nFormat/Info                 : Advanced Audio Codec\r\nFormat profile              : LC\r\nCodec ID                    : 40\r\nDuration                    : 20mn 30s\r\nBit rate mode               : Variable\r\nBit rate                    : 108 Kbps\r\nMaximum bit rate            : 147 Kbps\r\nChannel(s)                  : 2 channels\r\nChannel positions           : Front: L R\r\nSampling rate               : 48.0 KHz\r\nCompression mode            : Lossy\r\nStream size                 : 15.9 MiB (8%)\r\nLanguage                    : English\r\nEncoded date                : UTC 2015-11-22 23:23:48\r\nTagged date                 : UTC 2015-11-22 23:23:49\r\n\r\nText\r\nID                          : 3\r\nFormat                      : Timed Text\r\nCodec ID                    : tx3g\r\nDuration                    : 20mn 29s\r\nBit rate mode               : Variable\r\nBit rate                    : 159 bps\r\nStream size                 : 23.9 KiB (0%)\r\nLanguage                    : English\r\nEncoded date                : UTC 2015-11-22 23:23:49\r\nTagged date                 : UTC 2015-11-22 23:23:49","torrent":{"xt":"urn:btih:d1846c77d19e2ee3246aafcf052da11c3a5316ce","amp;dn":"Instant+Mom+S03E19+HDTV+EN-SUB+x264-W4F","amp;tr":["udp%3A%2F%2Ftracker.leechers-paradise.org%3A6969","udp%3A%2F%2Fzer0day.ch%3A1337","udp%3A%2F%2Fopen.demonii.com%3A1337","udp%3A%2F%2Ftracker.coppersurfer.tk%3A6969","udp%3A%2F%2Fexodus.desync.com%3A6969"],"infoHash":"d1846c77d19e2ee3246aafcf052da11c3a5316ce","infoHashBuffer":{"type":"Buffer","data":[209,132,108,119,209,158,46,227,36,106,175,207,5,45,161,28,58,83,22,206]},"announce":[],"urlList":[]}}